<?xml version="1.0" encoding="utf-8"?>
<!-- Generator: Adobe Illustrator 15.1.0, SVG Export Plug-In . SVG Version: 6.00 Build 0)  -->
<!DOCTYPE svg PUBLIC "-//W3C//DTD SVG 1.1//EN" "http://www.w3.org/Graphics/SVG/1.1/DTD/svg11.dtd" [
	<!ENTITY ns_extend "http://ns.adobe.com/Extensibility/1.0/">
	<!ENTITY ns_ai "http://ns.adobe.com/AdobeIllustrator/10.0/">
	<!ENTITY ns_graphs "http://ns.adobe.com/Graphs/1.0/">
	<!ENTITY ns_vars "http://ns.adobe.com/Variables/1.0/">
	<!ENTITY ns_imrep "http://ns.adobe.com/ImageReplacement/1.0/">
	<!ENTITY ns_sfw "http://ns.adobe.com/SaveForWeb/1.0/">
	<!ENTITY ns_custom "http://ns.adobe.com/GenericCustomNamespace/1.0/">
	<!ENTITY ns_adobe_xpath "http://ns.adobe.com/XPath/1.0/">
]>
<svg version="1.1" xmlns:x="&ns_extend;" xmlns:i="&ns_ai;" xmlns:graph="&ns_graphs;"
	 xmlns="http://www.w3.org/2000/svg" xmlns:xlink="http://www.w3.org/1999/xlink" x="0px" y="0px" width="231px" height="229px"
	 viewBox="0 0 231 229" enable-background="new 0 0 231 229" xml:space="preserve">
<metadata>
	<sfw  xmlns="&ns_sfw;">
		<slices></slices>
		<sliceSourceBounds  height="16383" width="16383" y="-8306" x="-8076" bottomLeftOrigin="true"></sliceSourceBounds>
	</sfw>
</metadata>
<g id="compass_icon">
</g>
<g id="Layer_3">
</g>
<g id="Layer_4">
	<g>
		<path fill="#FFFFFF" d="M60.873,120.303V52.114h-0.415l-14.922,7.254l-2.28-10.778l19.482-9.12h12.643v80.832H60.873z
			 M61.91,177.714l78.552-139.279h11.606L73.516,177.714H61.91z M128.44,167.765l13.058-12.021
			c17.202-15.959,26.114-25.493,26.114-36.063c0-8.083-4.974-14.508-15.751-14.508c-7.255,0-13.473,3.523-17.41,6.425l-4.353-9.534
			c5.596-4.56,14.923-8.498,25.493-8.498c19.482,0,27.358,12.229,27.358,23.214c0,15.751-11.814,26.943-27.565,41.037l-6.218,5.804
			v0.414H184.4v11.399h-55.96V167.765z"/>
	</g>
	<g>
	</g>
	<g>
	</g>
</g>
</svg>
