<?xml version="1.0" encoding="utf-8"?>
<!-- Generator: Adobe Illustrator 15.1.0, SVG Export Plug-In . SVG Version: 6.00 Build 0)  -->
<!DOCTYPE svg PUBLIC "-//W3C//DTD SVG 1.1//EN" "http://www.w3.org/Graphics/SVG/1.1/DTD/svg11.dtd" [
	<!ENTITY ns_extend "http://ns.adobe.com/Extensibility/1.0/">
	<!ENTITY ns_ai "http://ns.adobe.com/AdobeIllustrator/10.0/">
	<!ENTITY ns_graphs "http://ns.adobe.com/Graphs/1.0/">
	<!ENTITY ns_vars "http://ns.adobe.com/Variables/1.0/">
	<!ENTITY ns_imrep "http://ns.adobe.com/ImageReplacement/1.0/">
	<!ENTITY ns_sfw "http://ns.adobe.com/SaveForWeb/1.0/">
	<!ENTITY ns_custom "http://ns.adobe.com/GenericCustomNamespace/1.0/">
	<!ENTITY ns_adobe_xpath "http://ns.adobe.com/XPath/1.0/">
]>
<svg version="1.1" xmlns:x="&ns_extend;" xmlns:i="&ns_ai;" xmlns:graph="&ns_graphs;"
	 xmlns="http://www.w3.org/2000/svg" xmlns:xlink="http://www.w3.org/1999/xlink" x="0px" y="0px" width="231px" height="229px"
	 viewBox="0 0 231 229" enable-background="new 0 0 231 229" xml:space="preserve">
<metadata>
	<sfw  xmlns="&ns_sfw;">
		<slices></slices>
		<sliceSourceBounds  height="16383" width="16383" y="-8306" x="-8076" bottomLeftOrigin="true"></sliceSourceBounds>
	</sfw>
</metadata>
<g id="compass_icon">
</g>
<g id="Layer_3">
</g>
<g id="Layer_4">
	<g>
		<path fill="#FFFFFF" d="M47.401,45.067c4.767-3.316,13.472-6.632,23.627-6.632c18.032,0,25.493,9.534,25.493,19.482
			c0,8.498-6.011,15.337-15.752,18.653v0.415c11.192,1.658,19.275,9.534,19.275,20.104c0,12.851-11.606,24.25-32.747,24.25
			c-9.949,0-19.068-2.694-23.835-5.804l3.73-10.362c3.316,2.279,11.607,5.389,19.275,5.389c12.851,0,18.446-7.462,18.239-13.887
			c0-10.57-10.985-14.716-21.97-14.508h-5.596v-9.534h5.596c7.668,0,18.86-3.523,18.86-13.058c0-5.182-3.73-10.363-13.265-10.363
			c-7.461,0-14.094,3.316-17.41,5.596L47.401,45.067z M73.516,177.714l78.759-139.279h11.606L85.33,177.714H73.516z
			 M163.261,175.434v-21.348h-41.452v-8.083l40.001-52.438h15.13v50.364h12.436v10.156h-12.436v21.348H163.261z M163.261,119.474
			c0-4.975,0.414-9.327,0.621-13.058h-0.414c-2.694,4.56-4.56,8.083-6.84,11.399l-20.104,25.907l0.208,0.207h26.529V119.474z"/>
	</g>
	<g>
	</g>
	<g>
	</g>
</g>
</svg>
