<?xml version="1.0" encoding="utf-8"?>
<!-- Generator: Adobe Illustrator 15.1.0, SVG Export Plug-In . SVG Version: 6.00 Build 0)  -->
<!DOCTYPE svg PUBLIC "-//W3C//DTD SVG 1.1//EN" "http://www.w3.org/Graphics/SVG/1.1/DTD/svg11.dtd" [
	<!ENTITY ns_extend "http://ns.adobe.com/Extensibility/1.0/">
	<!ENTITY ns_ai "http://ns.adobe.com/AdobeIllustrator/10.0/">
	<!ENTITY ns_graphs "http://ns.adobe.com/Graphs/1.0/">
	<!ENTITY ns_vars "http://ns.adobe.com/Variables/1.0/">
	<!ENTITY ns_imrep "http://ns.adobe.com/ImageReplacement/1.0/">
	<!ENTITY ns_sfw "http://ns.adobe.com/SaveForWeb/1.0/">
	<!ENTITY ns_custom "http://ns.adobe.com/GenericCustomNamespace/1.0/">
	<!ENTITY ns_adobe_xpath "http://ns.adobe.com/XPath/1.0/">
]>
<svg version="1.1" xmlns:x="&ns_extend;" xmlns:i="&ns_ai;" xmlns:graph="&ns_graphs;"
	 xmlns="http://www.w3.org/2000/svg" xmlns:xlink="http://www.w3.org/1999/xlink" x="0px" y="0px" width="231px" height="229px"
	 viewBox="0 0 231 229" enable-background="new 0 0 231 229" xml:space="preserve">
<metadata>
	<sfw  xmlns="&ns_sfw;">
		<slices></slices>
		<sliceSourceBounds  height="16383" width="16383" y="-8306" x="-8076" bottomLeftOrigin="true"></sliceSourceBounds>
	</sfw>
</metadata>
<g id="compass_icon">
</g>
<g id="Layer_3">
</g>
<g id="Layer_4">
	<g>
		<path fill="#FFFFFF" d="M147.799,53.564c-3.73-0.207-8.497,0.208-13.679,1.037c-28.81,4.56-43.732,25.286-46.841,47.669h0.415
			c6.425-8.705,17.824-15.752,32.748-15.752c23.835,0,40.623,17.41,40.623,43.525c0,24.871-16.788,47.67-44.976,47.67
			c-28.603,0-47.463-22.385-47.463-57.411c0-26.529,9.327-47.463,22.799-60.728c11.191-10.985,26.115-17.824,43.111-19.897
			c5.389-0.829,9.948-1.036,13.264-1.036V53.564z M142.618,131.287c0-19.275-10.985-30.882-27.774-30.882
			c-10.984,0-21.348,6.633-26.322,16.581c-1.036,2.072-1.865,4.56-1.865,7.876c0.208,22.177,10.57,38.758,29.846,38.758
			C132.048,163.62,142.618,150.563,142.618,131.287z"/>
	</g>
</g>
</svg>
