<?xml version="1.0" encoding="utf-8"?>
<!-- Generator: Adobe Illustrator 15.1.0, SVG Export Plug-In . SVG Version: 6.00 Build 0)  -->
<!DOCTYPE svg PUBLIC "-//W3C//DTD SVG 1.1//EN" "http://www.w3.org/Graphics/SVG/1.1/DTD/svg11.dtd" [
	<!ENTITY ns_extend "http://ns.adobe.com/Extensibility/1.0/">
	<!ENTITY ns_ai "http://ns.adobe.com/AdobeIllustrator/10.0/">
	<!ENTITY ns_graphs "http://ns.adobe.com/Graphs/1.0/">
	<!ENTITY ns_vars "http://ns.adobe.com/Variables/1.0/">
	<!ENTITY ns_imrep "http://ns.adobe.com/ImageReplacement/1.0/">
	<!ENTITY ns_sfw "http://ns.adobe.com/SaveForWeb/1.0/">
	<!ENTITY ns_custom "http://ns.adobe.com/GenericCustomNamespace/1.0/">
	<!ENTITY ns_adobe_xpath "http://ns.adobe.com/XPath/1.0/">
]>
<svg version="1.1" xmlns:x="&ns_extend;" xmlns:i="&ns_ai;" xmlns:graph="&ns_graphs;"
	 xmlns="http://www.w3.org/2000/svg" xmlns:xlink="http://www.w3.org/1999/xlink" x="0px" y="0px" width="231px" height="229px"
	 viewBox="0 0 231 229" enable-background="new 0 0 231 229" xml:space="preserve">
<metadata>
	<sfw  xmlns="&ns_sfw;">
		<slices></slices>
		<sliceSourceBounds  height="16383" width="16383" y="-8306" x="-8076" bottomLeftOrigin="true"></sliceSourceBounds>
	</sfw>
</metadata>
<g id="compass_icon">
</g>
<g id="Layer_3">
</g>
<g id="Layer_4">
	<g>
		<path fill="#FFFFFF" d="M95.777,104.551c-15.13-7.047-21.555-18.653-21.555-30.26c0-21.348,18.032-35.856,41.867-35.856
			c26.114,0,39.379,16.167,39.379,33.162c0,11.399-5.803,23.835-22.384,31.503v0.622c16.788,6.632,27.151,18.653,27.151,34.819
			c0,23.628-20.104,39.173-45.805,39.173c-28.188,0-45.183-16.581-45.183-36.271c0-16.996,10.156-29.224,26.737-36.271
			L95.777,104.551z M141.789,140.406c0-16.166-11.399-24.249-29.639-29.431c-15.752,4.56-24.249,15.13-24.249,27.98
			c-0.622,13.472,9.741,25.493,26.943,25.493C131.219,164.449,141.789,154.293,141.789,140.406z M91.631,73.047
			c-0.207,13.472,10.155,20.727,25.701,24.871c11.606-3.938,20.519-12.228,20.519-24.457c0-10.777-6.425-21.969-22.799-21.969
			C99.921,51.492,91.631,61.44,91.631,73.047z"/>
	</g>
</g>
</svg>
