<?xml version="1.0" encoding="utf-8"?>
<!-- Generator: Adobe Illustrator 15.1.0, SVG Export Plug-In . SVG Version: 6.00 Build 0)  -->
<!DOCTYPE svg PUBLIC "-//W3C//DTD SVG 1.1//EN" "http://www.w3.org/Graphics/SVG/1.1/DTD/svg11.dtd" [
	<!ENTITY ns_extend "http://ns.adobe.com/Extensibility/1.0/">
	<!ENTITY ns_ai "http://ns.adobe.com/AdobeIllustrator/10.0/">
	<!ENTITY ns_graphs "http://ns.adobe.com/Graphs/1.0/">
	<!ENTITY ns_vars "http://ns.adobe.com/Variables/1.0/">
	<!ENTITY ns_imrep "http://ns.adobe.com/ImageReplacement/1.0/">
	<!ENTITY ns_sfw "http://ns.adobe.com/SaveForWeb/1.0/">
	<!ENTITY ns_custom "http://ns.adobe.com/GenericCustomNamespace/1.0/">
	<!ENTITY ns_adobe_xpath "http://ns.adobe.com/XPath/1.0/">
]>
<svg version="1.1" xmlns:x="&ns_extend;" xmlns:i="&ns_ai;" xmlns:graph="&ns_graphs;"
	 xmlns="http://www.w3.org/2000/svg" xmlns:xlink="http://www.w3.org/1999/xlink" x="0px" y="0px" width="231px" height="229px"
	 viewBox="0 0 231 229" enable-background="new 0 0 231 229" xml:space="preserve">
<metadata>
	<sfw  xmlns="&ns_sfw;">
		<slices></slices>
		<sliceSourceBounds  height="16383" width="16383" y="-8306" x="-8076" bottomLeftOrigin="true"></sliceSourceBounds>
	</sfw>
</metadata>
<g id="compass_icon">
</g>
<g id="Layer_3">
</g>
<g id="Layer_4">
	<g>
		<path fill="#FFFFFF" d="M58.159,57.71h-0.414l-23.42,12.643l-3.523-13.886l29.431-15.752h15.544v134.719H58.159V57.71z"/>
		<path fill="#FFFFFF" d="M214.64,106.623c0,45.805-17.202,71.091-46.841,71.091c-26.322,0-44.354-24.664-44.769-69.226
			c0-45.39,19.69-70.054,47.049-70.054C198.267,38.435,214.64,63.72,214.64,106.623z M141.477,108.696
			c0,35.026,10.777,54.924,27.358,54.924c18.446,0,27.358-21.763,27.358-56.168c0-33.162-8.29-54.924-27.358-54.924
			C153.083,52.528,141.477,72.011,141.477,108.696z"/>
	</g>
	<g>
	</g>
</g>
</svg>
