<?xml version="1.0" encoding="utf-8"?>
<!-- Generator: Adobe Illustrator 15.1.0, SVG Export Plug-In . SVG Version: 6.00 Build 0)  -->
<!DOCTYPE svg PUBLIC "-//W3C//DTD SVG 1.1//EN" "http://www.w3.org/Graphics/SVG/1.1/DTD/svg11.dtd" [
	<!ENTITY ns_extend "http://ns.adobe.com/Extensibility/1.0/">
	<!ENTITY ns_ai "http://ns.adobe.com/AdobeIllustrator/10.0/">
	<!ENTITY ns_graphs "http://ns.adobe.com/Graphs/1.0/">
	<!ENTITY ns_vars "http://ns.adobe.com/Variables/1.0/">
	<!ENTITY ns_imrep "http://ns.adobe.com/ImageReplacement/1.0/">
	<!ENTITY ns_sfw "http://ns.adobe.com/SaveForWeb/1.0/">
	<!ENTITY ns_custom "http://ns.adobe.com/GenericCustomNamespace/1.0/">
	<!ENTITY ns_adobe_xpath "http://ns.adobe.com/XPath/1.0/">
]>
<svg version="1.1" xmlns:x="&ns_extend;" xmlns:i="&ns_ai;" xmlns:graph="&ns_graphs;"
	 xmlns="http://www.w3.org/2000/svg" xmlns:xlink="http://www.w3.org/1999/xlink" x="0px" y="0px" width="231px" height="229px"
	 viewBox="0 0 231 229" enable-background="new 0 0 231 229" xml:space="preserve">
<metadata>
	<sfw  xmlns="&ns_sfw;">
		<slices></slices>
		<sliceSourceBounds  height="16383" width="16383" y="-8306" x="-8076" bottomLeftOrigin="true"></sliceSourceBounds>
	</sfw>
</metadata>
<g id="compass_icon">
</g>
<g id="Layer_3">
</g>
<g id="Layer_4">
	<polygon fill="none" stroke="#FFFFFF" stroke-width="6" stroke-miterlimit="10" points="23.75,66.467 23.75,52.491 52.162,52.893 
		52.162,66.754 64.068,66.811 64.068,52.549 92.596,52.549 92.596,66.467 98.002,66.467 98.002,114.667 18.344,114.667 
		18.344,66.467 	"/>
	<polyline fill="none" stroke="#FFFFFF" stroke-width="6" stroke-miterlimit="10" points="98.002,66.467 98.002,114.667 
		18.344,114.667 18.344,66.467 23.75,66.467 23.75,52.491 52.162,52.549 52.162,66.754 64.068,66.811 64.068,52.549 92.596,52.549 	
		"/>
	<g>
		<g>
			
				<line fill="none" stroke="#FFFFFF" stroke-width="6" stroke-linejoin="round" x1="58.173" y1="119.021" x2="58.173" y2="122.021"/>
			
				<line fill="none" stroke="#FFFFFF" stroke-width="6" stroke-linejoin="round" stroke-dasharray="5.683,5.683" x1="58.173" y1="127.704" x2="58.173" y2="147.595"/>
			<polyline fill="none" stroke="#FFFFFF" stroke-width="6" stroke-linejoin="round" points="58.173,150.437 58.173,153.437 
				61.173,153.437 			"/>
			
				<line fill="none" stroke="#FFFFFF" stroke-width="6" stroke-linejoin="round" stroke-dasharray="6.4727,6.4727" x1="67.646" y1="153.437" x2="103.246" y2="153.437"/>
			
				<line fill="none" stroke="#FFFFFF" stroke-width="6" stroke-linejoin="round" x1="106.482" y1="153.437" x2="109.482" y2="153.437"/>
			<g>
				<polygon fill="#FFFFFF" points="105.98,165.336 126.705,153.371 105.98,141.403 				"/>
			</g>
		</g>
	</g>
	<polygon opacity="0.53" fill="#FFFFFF" points="136.748,128.643 136.748,114.725 165.16,114.725 165.16,128.643 177.066,128.643 
		177.066,114.725 205.594,114.725 205.594,128.643 211,128.643 211,176.843 131.342,176.843 131.342,128.643 	"/>
</g>
</svg>
