<?xml version="1.0" encoding="utf-8"?>
<!-- Generator: Adobe Illustrator 15.1.0, SVG Export Plug-In . SVG Version: 6.00 Build 0)  -->
<!DOCTYPE svg PUBLIC "-//W3C//DTD SVG 1.1//EN" "http://www.w3.org/Graphics/SVG/1.1/DTD/svg11.dtd" [
	<!ENTITY ns_extend "http://ns.adobe.com/Extensibility/1.0/">
	<!ENTITY ns_ai "http://ns.adobe.com/AdobeIllustrator/10.0/">
	<!ENTITY ns_graphs "http://ns.adobe.com/Graphs/1.0/">
	<!ENTITY ns_vars "http://ns.adobe.com/Variables/1.0/">
	<!ENTITY ns_imrep "http://ns.adobe.com/ImageReplacement/1.0/">
	<!ENTITY ns_sfw "http://ns.adobe.com/SaveForWeb/1.0/">
	<!ENTITY ns_custom "http://ns.adobe.com/GenericCustomNamespace/1.0/">
	<!ENTITY ns_adobe_xpath "http://ns.adobe.com/XPath/1.0/">
]>
<svg version="1.1" xmlns:x="&ns_extend;" xmlns:i="&ns_ai;" xmlns:graph="&ns_graphs;"
	 xmlns="http://www.w3.org/2000/svg" xmlns:xlink="http://www.w3.org/1999/xlink" x="0px" y="0px" width="231px" height="229px"
	 viewBox="0 0 231 229" enable-background="new 0 0 231 229" xml:space="preserve">
<metadata>
	<sfw  xmlns="&ns_sfw;">
		<slices></slices>
		<sliceSourceBounds  x="-8076" y="-8306" width="16383" height="16383" bottomLeftOrigin="true"></sliceSourceBounds>
	</sfw>
</metadata>
<g id="Alignment">
</g>
<g id="graphic_layer">
	<g>
		<g>
			<path fill="none" stroke="#FFFFFF" stroke-width="8.6916" stroke-linejoin="round" d="M115.453,25.593
				c-40.102,0-73.945,26.779-84.626,63.431"/>
			<g>
				<polygon fill="#FFFFFF" points="15.203,81.302 27.411,113.747 49.407,86.951 				"/>
			</g>
		</g>
	</g>
	<g>
		<g>
			<path fill="none" stroke="#FFFFFF" stroke-width="8.6916" stroke-linejoin="round" d="M115.548,203.693
				c40.1,0,73.945-26.779,84.628-63.43"/>
			<g>
				<polygon fill="#FFFFFF" points="215.8,147.986 203.592,115.541 181.595,142.336 				"/>
			</g>
		</g>
	</g>
	<polygon fill="none" stroke="#FFFFFF" stroke-width="5.5325" stroke-miterlimit="10" points="68.339,91.912 68.339,72.557 
		107.689,72.637 107.689,91.833 124.177,91.912 124.177,72.557 163.687,72.16 163.687,91.912 171.174,91.912 171.174,158.667 
		60.851,158.667 60.851,91.912 	"/>
	<g>
		<path fill="#FFFFFF" d="M96.744,136.37c0.894,0.095,1.929,0,3.341-0.141c2.4-0.329,4.659-1.271,6.4-2.965
			c2.023-1.835,3.482-4.518,4.047-8.094h-0.141c-1.694,2.07-4.141,3.247-7.247,3.247c-5.458,0-8.988-4.142-8.988-9.364
			c0-5.789,4.188-10.871,10.447-10.871c6.258,0,10.117,5.035,10.117,12.941c0,6.682-2.259,11.388-5.271,14.306
			c-2.353,2.306-5.6,3.717-8.894,4.094c-1.506,0.235-2.823,0.282-3.812,0.235V136.37z M98.25,118.818
			c0,3.812,2.306,6.493,5.882,6.493c2.776,0,4.941-1.364,6.023-3.199c0.235-0.424,0.376-0.848,0.376-1.554
			c0-5.223-1.93-9.223-6.306-9.223C100.744,111.335,98.25,114.441,98.25,118.818z"/>
		<path fill="#FFFFFF" d="M138.857,123.665c0,10.399-3.905,16.141-10.635,16.141c-5.977,0-10.07-5.6-10.165-15.718
			c0-10.305,4.471-15.905,10.683-15.905C135.14,108.183,138.857,113.924,138.857,123.665z M122.246,124.136
			c0,7.952,2.447,12.47,6.212,12.47c4.188,0,6.211-4.94,6.211-12.752c0-7.529-1.882-12.471-6.211-12.471
			C124.881,111.383,122.246,115.807,122.246,124.136z"/>
	</g>
	<g>
		<path fill="#FFFFFF" d="M149.907,111.746c0,3.029-2.115,4.349-4.078,4.349c-2.2,0-3.927-1.625-3.927-4.214
			c0-2.725,1.812-4.332,4.062-4.332C148.316,107.549,149.907,109.258,149.907,111.746z M143.426,111.83
			c0,1.793,1.016,3.147,2.471,3.147c1.421,0,2.487-1.337,2.487-3.181c0-1.388-0.693-3.131-2.453-3.131
			C144.188,108.666,143.426,110.29,143.426,111.83z"/>
	</g>
</g>
</svg>
