<?xml version="1.0" encoding="utf-8"?>
<!-- Generator: Adobe Illustrator 15.1.0, SVG Export Plug-In . SVG Version: 6.00 Build 0)  -->
<!DOCTYPE svg PUBLIC "-//W3C//DTD SVG 1.1//EN" "http://www.w3.org/Graphics/SVG/1.1/DTD/svg11.dtd" [
	<!ENTITY ns_extend "http://ns.adobe.com/Extensibility/1.0/">
	<!ENTITY ns_ai "http://ns.adobe.com/AdobeIllustrator/10.0/">
	<!ENTITY ns_graphs "http://ns.adobe.com/Graphs/1.0/">
	<!ENTITY ns_vars "http://ns.adobe.com/Variables/1.0/">
	<!ENTITY ns_imrep "http://ns.adobe.com/ImageReplacement/1.0/">
	<!ENTITY ns_sfw "http://ns.adobe.com/SaveForWeb/1.0/">
	<!ENTITY ns_custom "http://ns.adobe.com/GenericCustomNamespace/1.0/">
	<!ENTITY ns_adobe_xpath "http://ns.adobe.com/XPath/1.0/">
]>
<svg version="1.1" xmlns:x="&ns_extend;" xmlns:i="&ns_ai;" xmlns:graph="&ns_graphs;"
	 xmlns="http://www.w3.org/2000/svg" xmlns:xlink="http://www.w3.org/1999/xlink" x="0px" y="0px" width="231px" height="229px"
	 viewBox="0 0 231 229" enable-background="new 0 0 231 229" xml:space="preserve">
<metadata>
	<sfw  xmlns="&ns_sfw;">
		<slices></slices>
		<sliceSourceBounds  height="16383" width="16383" y="-8306" x="-8076" bottomLeftOrigin="true"></sliceSourceBounds>
	</sfw>
</metadata>
<g id="compass_icon">
</g>
<g id="Layer_3">
</g>
<g id="Layer_4">
	<g>
		<path fill="#FFFFFF" d="M142.636,165.209c4.489,0,8.217,3.517,8.484,8.008c0.136,2.269-0.62,4.454-2.129,6.154
			c-1.51,1.701-3.591,2.713-5.859,2.849c-0.175,0.011-0.348,0.016-0.52,0.016c-4.49,0-8.217-3.518-8.483-8.01
			c-0.136-2.268,0.62-4.453,2.129-6.153c1.51-1.7,3.591-2.712,5.858-2.848C142.291,165.215,142.464,165.209,142.636,165.209
			 M142.636,159.209c-0.29,0-0.582,0.009-0.876,0.026c-8,0.479-14.099,7.351-13.62,15.349c0.458,7.709,6.854,13.651,14.473,13.651
			c0.29,0,0.582-0.009,0.876-0.026c8.001-0.479,14.101-7.352,13.621-15.352C156.649,165.151,150.255,159.209,142.636,159.209
			L142.636,159.209z"/>
	</g>
	<path fill="none" stroke="#FFFFFF" stroke-width="6" d="M151.871,138.179c-3.798-0.987-7.518-1.352-11.436-1.117
		c0.11,1.853,0.224,3.709,0.332,5.563c-3.322,0.199-6.419,0.884-9.519,2.097c-0.677-1.73-1.354-3.462-2.033-5.189
		c-3.653,1.431-6.878,3.324-9.912,5.815c1.182,1.437,2.36,2.872,3.541,4.308c-2.57,2.111-4.677,4.483-6.47,7.292
		c-1.564-1.003-3.13-2.005-4.696-3.005c-2.114,3.306-3.61,6.735-4.598,10.53c1.8,0.468,3.597,0.938,5.396,1.406
		c-0.839,3.22-1.146,6.374-0.947,9.698c-1.855,0.111-3.71,0.221-5.565,0.332c0.233,3.919,1.037,7.569,2.471,11.222
		c1.731-0.677,3.459-1.355,5.19-2.036c1.215,3.099,2.82,5.836,4.934,8.405c-1.437,1.181-2.872,2.358-4.309,3.542
		c2.491,3.03,5.291,5.512,8.595,7.627c1.001-1.568,2.001-3.133,3.004-4.699c2.804,1.79,5.709,3.06,8.935,3.899
		c-0.47,1.798-0.938,3.597-1.407,5.396c3.797,0.987,7.52,1.351,11.436,1.117c-0.111-1.856-0.223-3.711-0.331-5.563
		c3.32-0.198,6.417-0.883,9.517-2.097c0.681,1.729,1.358,3.46,2.038,5.19c3.651-1.434,6.873-3.324,9.906-5.816
		c-1.178-1.437-2.358-2.872-3.538-4.308c2.572-2.113,4.676-4.487,6.468-7.291c1.567,1.002,3.133,2.004,4.698,3.005
		c2.112-3.306,3.609-6.735,4.596-10.533c-1.798-0.468-3.595-0.936-5.395-1.403c0.838-3.22,1.147-6.377,0.95-9.699
		c1.854-0.111,3.71-0.22,5.563-0.331c-0.232-3.919-1.037-7.569-2.471-11.223c-1.729,0.678-3.457,1.356-5.188,2.036
		c-1.215-3.099-2.82-5.833-4.934-8.404c1.437-1.182,2.869-2.358,4.306-3.541c-2.491-3.031-5.289-5.515-8.595-7.625
		c-1.001,1.563-2.001,3.129-3.001,4.695c-2.805-1.792-5.713-3.06-8.933-3.897C150.936,141.775,151.403,139.979,151.871,138.179z"/>
	<path fill="none" stroke="#FFFFFF" stroke-width="4.899" d="M82.961,93.089c-3.702-2.155-7.507-3.632-11.695-4.538
		c-0.428,1.982-0.856,3.965-1.285,5.948c-3.552-0.767-7.009-0.961-10.624-0.595c-0.205-2.018-0.409-4.037-0.614-6.055
		c-4.263,0.431-8.209,1.475-12.13,3.202c0.819,1.857,1.638,3.714,2.457,5.569c-3.324,1.465-6.236,3.342-8.944,5.764
		c-1.352-1.514-2.704-3.026-4.057-4.539c-3.193,2.855-5.774,6.019-7.929,9.721c1.753,1.021,3.506,2.042,5.259,3.062
		c-1.828,3.14-3.081,6.369-3.848,9.921c-1.984-0.432-3.967-0.859-5.95-1.289c-0.905,4.188-1.134,8.264-0.703,12.525
		c2.02-0.205,4.038-0.41,6.056-0.613c0.366,3.613,1.25,6.961,2.716,10.285c-1.856,0.82-3.711,1.641-5.569,2.455
		c1.729,3.922,3.939,7.352,6.794,10.547c1.513-1.354,3.026-2.705,4.538-4.055c2.422,2.709,5.105,4.898,8.245,6.725
		c-1.021,1.754-2.042,3.506-3.061,5.26c3.7,2.156,7.506,3.629,11.694,4.537c0.428-1.982,0.856-3.967,1.286-5.949
		c3.552,0.768,7.009,0.963,10.624,0.596c0.205,2.018,0.409,4.037,0.614,6.055c4.263-0.432,8.209-1.471,12.129-3.201
		c-0.818-1.854-1.637-3.713-2.455-5.57c3.324-1.465,6.235-3.342,8.944-5.762c1.352,1.514,2.704,3.025,4.055,4.537
		c3.195-2.854,5.775-6.018,7.93-9.719c-1.753-1.021-3.506-2.041-5.259-3.063c1.828-3.141,3.081-6.367,3.848-9.918
		c1.984,0.426,3.966,0.855,5.951,1.285c0.904-4.189,1.133-8.264,0.701-12.525c-2.02,0.205-4.037,0.412-6.055,0.617
		c-0.367-3.615-1.251-6.961-2.716-10.29c1.856-0.819,3.711-1.638,5.569-2.455c-1.728-3.92-3.939-7.351-6.794-10.546
		c-1.514,1.352-3.026,2.705-4.538,4.055c-2.421-2.708-5.104-4.896-8.245-6.725C80.92,96.596,81.941,94.843,82.961,93.089z"/>
	<path fill="none" stroke="#FFFFFF" stroke-width="4.899" stroke-miterlimit="10" d="M47.304,124.389
		c-1.85,8.549,3.583,16.982,12.135,18.832c8.55,1.854,16.983-3.58,18.833-12.133c1.85-8.549-3.582-16.982-12.134-18.833
		C57.588,110.406,49.155,115.838,47.304,124.389z"/>
	<g>
		<path fill="#FFFFFF" d="M150.99,64.301c6.924,0,12.67,5.421,13.083,12.344c0.21,3.498-0.956,6.868-3.282,9.49
			c-2.327,2.622-5.536,4.182-9.035,4.392c-0.265,0.016-0.533,0.024-0.798,0.024c-6.924,0-12.67-5.422-13.081-12.348
			c-0.209-3.497,0.956-6.867,3.282-9.488c2.327-2.622,5.535-4.181,9.034-4.391C150.458,64.309,150.727,64.301,150.99,64.301
			 M150.99,58.3c-0.383,0-0.767,0.012-1.154,0.035c-10.543,0.631-18.579,9.687-17.948,20.226c0.603,10.159,9.03,17.989,19.07,17.989
			c0.383,0,0.768-0.012,1.155-0.035c10.544-0.632,18.581-9.688,17.949-20.229C169.457,66.131,161.03,58.3,150.99,58.3L150.99,58.3z"
			/>
	</g>
	<path fill="none" stroke="#FFFFFF" stroke-width="6" d="M163.16,30.587c-5.005-1.301-9.906-1.781-15.069-1.472
		c0.146,2.441,0.295,4.887,0.438,7.331c-4.378,0.263-8.459,1.165-12.544,2.763c-0.892-2.28-1.784-4.562-2.679-6.838
		c-4.814,1.885-9.063,4.38-13.062,7.663c1.557,1.893,3.11,3.785,4.666,5.677c-3.388,2.782-6.163,5.908-8.525,9.609
		c-2.063-1.321-4.125-2.642-6.189-3.959c-2.786,4.356-4.757,8.875-6.059,13.876c2.372,0.616,4.74,1.235,7.11,1.853
		c-1.105,4.243-1.511,8.399-1.248,12.78c-2.445,0.146-4.89,0.291-7.334,0.438c0.308,5.164,1.367,9.975,3.256,14.788
		c2.281-0.892,4.558-1.786,6.84-2.683c1.601,4.083,3.716,7.69,6.501,11.076c-1.893,1.556-3.785,3.108-5.678,4.667
		c3.283,3.993,6.973,7.263,11.326,10.051c1.318-2.067,2.637-4.129,3.958-6.193c3.695,2.359,7.523,4.031,11.774,5.139
		c-0.619,2.369-1.236,4.74-1.854,7.109c5.003,1.302,9.908,1.781,15.069,1.473c-0.146-2.446-0.294-4.891-0.437-7.331
		c4.375-0.261,8.456-1.163,12.541-2.763c0.896,2.277,1.79,4.559,2.686,6.84c4.812-1.89,9.057-4.381,13.054-7.665
		c-1.552-1.893-3.107-3.785-4.662-5.677c3.39-2.785,6.162-5.913,8.523-9.608c2.065,1.321,4.128,2.641,6.191,3.96
		c2.783-4.356,4.756-8.875,6.056-13.88c-2.369-0.616-4.737-1.233-7.108-1.849c1.104-4.243,1.512-8.403,1.252-12.781
		c2.443-0.147,4.889-0.29,7.331-0.437c-0.307-5.164-1.366-9.975-3.256-14.789c-2.279,0.893-4.556,1.788-6.837,2.683
		c-1.601-4.083-3.717-7.687-6.502-11.075c1.894-1.557,3.781-3.108,5.674-4.667c-3.282-3.994-6.97-7.267-11.325-10.048
		c-1.319,2.059-2.637,4.123-3.955,6.188c-3.695-2.361-7.528-4.032-11.771-5.136C161.927,35.327,162.544,32.959,163.16,30.587z"/>
</g>
</svg>
